<mxfile host="app.diagrams.net" modified="2024-06-18T16:18:28.034Z" agent="Mozilla/5.0 (Windows NT 10.0; Win64; x64) AppleWebKit/537.36 (KHTML, like Gecko) Chrome/126.0.0.0 Safari/537.36 Edg/126.0.0.0" etag="zNEYSnuYPbeCnsPa0y6S" version="24.5.5" type="github">
  <diagram name="Page-1" id="929967ad-93f9-6ef4-fab6-5d389245f69c">
    <mxGraphModel dx="1791" dy="813" grid="1" gridSize="10" guides="1" tooltips="1" connect="1" arrows="1" fold="1" page="1" pageScale="1.5" pageWidth="1169" pageHeight="826" background="none" math="0" shadow="0">
      <root>
        <mxCell id="0" style=";html=1;" />
        <mxCell id="1" style=";html=1;" parent="0" />
        <mxCell id="7TeSDJ9uC_Aw0JkNLBTq-32" value="" style="verticalLabelPosition=bottom;verticalAlign=top;html=1;shape=mxgraph.basic.star" vertex="1" parent="1">
          <mxGeometry x="412" y="275" width="877.5" height="675" as="geometry" />
        </mxCell>
        <mxCell id="7TeSDJ9uC_Aw0JkNLBTq-6" value="&lt;p style=&quot;margin:0px;margin-top:4px;text-align:center;&quot;&gt;&lt;i&gt;Dim_Professor&lt;/i&gt;&lt;/p&gt;&lt;hr size=&quot;1&quot; style=&quot;border-style:solid;&quot;&gt;&lt;p style=&quot;margin:0px;margin-left:4px;&quot;&gt;id_professor INT&lt;br&gt;&lt;/p&gt;&lt;p style=&quot;margin:0px;margin-left:4px;&quot;&gt;nome_professor VARCHAR(100)&lt;/p&gt;&lt;p style=&quot;margin:0px;margin-left:4px;&quot;&gt;departamento VARCHAR(100)&lt;/p&gt;&lt;p style=&quot;margin:0px;margin-left:4px;&quot;&gt;email VARCHAR(100)&lt;/p&gt;&lt;p style=&quot;margin:0px;margin-left:4px;&quot;&gt;telefone VARCHAR (20)&lt;/p&gt;&lt;hr size=&quot;1&quot; style=&quot;border-style:solid;&quot;&gt;&lt;p style=&quot;margin:0px;margin-left:4px;&quot;&gt;&lt;br&gt;&lt;/p&gt;" style="verticalAlign=top;align=left;overflow=fill;html=1;whiteSpace=wrap;" vertex="1" parent="1">
          <mxGeometry x="772" y="255" width="190" height="110" as="geometry" />
        </mxCell>
        <mxCell id="7TeSDJ9uC_Aw0JkNLBTq-33" value="&lt;p style=&quot;margin:0px;margin-top:4px;text-align:center;&quot;&gt;&lt;i&gt;Dim_Data&lt;/i&gt;&lt;/p&gt;&lt;hr size=&quot;1&quot; style=&quot;border-style:solid;&quot;&gt;&lt;p style=&quot;margin:0px;margin-left:4px;&quot;&gt;id_data INT&lt;br&gt;&lt;/p&gt;&lt;p style=&quot;margin:0px;margin-left:4px;&quot;&gt;data DATE&lt;/p&gt;&lt;p style=&quot;margin:0px;margin-left:4px;&quot;&gt;ano INT&lt;/p&gt;&lt;p style=&quot;margin:0px;margin-left:4px;&quot;&gt;mes INT&lt;/p&gt;&lt;p style=&quot;margin:0px;margin-left:4px;&quot;&gt;dia INT&lt;/p&gt;&lt;p style=&quot;margin:0px;margin-left:4px;&quot;&gt;trimestre INT&lt;/p&gt;&lt;p style=&quot;margin:0px;margin-left:4px;&quot;&gt;semestre INT&lt;/p&gt;&lt;p style=&quot;margin:0px;margin-left:4px;&quot;&gt;dia_da_semana VARCHAR(10)&lt;/p&gt;&lt;p style=&quot;margin:0px;margin-left:4px;&quot;&gt;dia_do_ano INT&lt;/p&gt;&lt;hr size=&quot;1&quot; style=&quot;border-style:solid;&quot;&gt;&lt;p style=&quot;margin:0px;margin-left:4px;&quot;&gt;&lt;br&gt;&lt;/p&gt;" style="verticalAlign=top;align=left;overflow=fill;html=1;whiteSpace=wrap;" vertex="1" parent="1">
          <mxGeometry x="1012" y="815" width="190" height="170" as="geometry" />
        </mxCell>
        <mxCell id="7TeSDJ9uC_Aw0JkNLBTq-34" value="&lt;p style=&quot;margin:0px;margin-top:4px;text-align:center;&quot;&gt;&lt;i&gt;Dim_Departamento&lt;/i&gt;&lt;/p&gt;&lt;hr size=&quot;1&quot; style=&quot;border-style:solid;&quot;&gt;&lt;p style=&quot;margin:0px;margin-left:4px;&quot;&gt;id_departamento INT&lt;br&gt;&lt;/p&gt;&lt;p style=&quot;margin:0px;margin-left:4px;&quot;&gt;nome_departamento VARCHAR(100)&lt;/p&gt;&lt;p style=&quot;margin:0px;margin-left:4px;&quot;&gt;codigo_departamento(50)&lt;/p&gt;&lt;hr size=&quot;1&quot; style=&quot;border-style:solid;&quot;&gt;&lt;p style=&quot;margin:0px;margin-left:4px;&quot;&gt;&lt;br&gt;&lt;/p&gt;" style="verticalAlign=top;align=left;overflow=fill;html=1;whiteSpace=wrap;" vertex="1" parent="1">
          <mxGeometry x="1202" y="515" width="210" height="80" as="geometry" />
        </mxCell>
        <mxCell id="7TeSDJ9uC_Aw0JkNLBTq-35" value="&lt;p style=&quot;margin:0px;margin-top:4px;text-align:center;&quot;&gt;&lt;i&gt;Dim_Disciplina&lt;/i&gt;&lt;/p&gt;&lt;hr size=&quot;1&quot; style=&quot;border-style:solid;&quot;&gt;&lt;p style=&quot;margin:0px;margin-left:4px;&quot;&gt;id_disciplina INT&amp;nbsp;&lt;br&gt;&lt;/p&gt;&lt;p style=&quot;margin:0px;margin-left:4px;&quot;&gt;nome_disciplina VARCHAR (100)&lt;/p&gt;&lt;p style=&quot;margin:0px;margin-left:4px;&quot;&gt;codigo_disciplina VARCHAR (50)&lt;/p&gt;&lt;hr size=&quot;1&quot; style=&quot;border-style:solid;&quot;&gt;&lt;p style=&quot;margin:0px;margin-left:4px;&quot;&gt;&lt;br&gt;&lt;/p&gt;" style="verticalAlign=top;align=left;overflow=fill;html=1;whiteSpace=wrap;" vertex="1" parent="1">
          <mxGeometry x="342" y="515" width="190" height="80" as="geometry" />
        </mxCell>
        <mxCell id="7TeSDJ9uC_Aw0JkNLBTq-36" value="&lt;p style=&quot;margin:0px;margin-top:4px;text-align:center;&quot;&gt;&lt;i&gt;Dim_Curso&lt;/i&gt;&lt;/p&gt;&lt;hr size=&quot;1&quot; style=&quot;border-style:solid;&quot;&gt;&lt;p style=&quot;margin:0px;margin-left:4px;&quot;&gt;id_curso INT&amp;nbsp;&lt;br&gt;&lt;/p&gt;&lt;p style=&quot;margin:0px;margin-left:4px;&quot;&gt;nome_curso VARCHAR(100)&lt;/p&gt;&lt;p style=&quot;margin:0px;margin-left:4px;&quot;&gt;codigo_curso VARCHAR(50)&lt;/p&gt;&lt;hr size=&quot;1&quot; style=&quot;border-style:solid;&quot;&gt;&lt;p style=&quot;margin:0px;margin-left:4px;&quot;&gt;&lt;br&gt;&lt;/p&gt;" style="verticalAlign=top;align=left;overflow=fill;html=1;whiteSpace=wrap;" vertex="1" parent="1">
          <mxGeometry x="520" y="815" width="190" height="145" as="geometry" />
        </mxCell>
        <mxCell id="7TeSDJ9uC_Aw0JkNLBTq-37" value="&lt;p style=&quot;margin:0px;margin-top:4px;text-align:center;&quot;&gt;&lt;i&gt;Fato_Professor&lt;/i&gt;&lt;/p&gt;&lt;hr size=&quot;1&quot; style=&quot;border-style:solid;&quot;&gt;&lt;p style=&quot;margin:0px;margin-left:4px;&quot;&gt;id_fato INT&lt;br&gt;&lt;/p&gt;&lt;p style=&quot;margin:0px;margin-left:4px;&quot;&gt;id_professor INT&lt;/p&gt;&lt;p style=&quot;margin:0px;margin-left:4px;&quot;&gt;id_curso INT&lt;br&gt;&lt;/p&gt;&lt;p style=&quot;margin:0px;margin-left:4px;&quot;&gt;id_departamento INT&lt;br&gt;&lt;/p&gt;&lt;p style=&quot;margin:0px;margin-left:4px;&quot;&gt;id_disciplina INT&lt;br&gt;&lt;/p&gt;&lt;p style=&quot;margin:0px;margin-left:4px;&quot;&gt;id_data_inicio INT&lt;br&gt;&lt;/p&gt;&lt;p style=&quot;margin:0px;margin-left:4px;&quot;&gt;id_data_fim INT&lt;br&gt;&lt;/p&gt;&lt;p style=&quot;margin:0px;margin-left:4px;&quot;&gt;quantidade_cursos INT&lt;/p&gt;&lt;p style=&quot;margin:0px;margin-left:4px;&quot;&gt;carga_horaria_total DECIMAL(10,2)&lt;/p&gt;&lt;p style=&quot;margin:0px;margin-left:4px;&quot;&gt;numero_alunos INT&lt;/p&gt;&lt;p style=&quot;margin:0px;margin-left:4px;&quot;&gt;FOREIGN KEY (id_professor) REFERENCES Dim_Professor(id_professor),&lt;/p&gt;&lt;p style=&quot;margin:0px;margin-left:4px;&quot;&gt;FOREIGN KEY (id_curso) REFERENCES Dim_Curso(id_curso),&lt;/p&gt;&lt;p style=&quot;margin:0px;margin-left:4px;&quot;&gt;FOREIGN KEY (id_departamento) REFERENCES Dim_Departamento(id_departamento),&lt;/p&gt;&lt;p style=&quot;margin:0px;margin-left:4px;&quot;&gt;FOREIGN KEY (id_disciplina) REFERENCES Dim_Disciplina(id_disciplina),&lt;/p&gt;&lt;p style=&quot;margin:0px;margin-left:4px;&quot;&gt;FOREIGN KEY (id_data_inicio) REFERENCES Dim_Data(id_data),&lt;/p&gt;&lt;p style=&quot;margin:0px;margin-left:4px;&quot;&gt;FOREIGN KEY (id_data_fim) REFERENCES Dim_Data(id_data)&lt;/p&gt;&lt;hr size=&quot;1&quot; style=&quot;border-style:solid;&quot;&gt;&lt;p style=&quot;margin:0px;margin-left:4px;&quot;&gt;&lt;br&gt;&lt;/p&gt;" style="verticalAlign=top;align=left;overflow=fill;html=1;whiteSpace=wrap;" vertex="1" parent="1">
          <mxGeometry x="619.5" y="475" width="495" height="265" as="geometry" />
        </mxCell>
      </root>
    </mxGraphModel>
  </diagram>
</mxfile>
